<?xml version="1.0" encoding="utf-8"?><svg viewBox="0 0 612 612" xmlns="http://www.w3.org/2000/svg" xmlns:xlink="http://www.w3.org/1999/xlink"><style>:root>svg{display:none}:root>svg:target{display:block}</style><svg viewBox="0 0 512 512" id="building" xmlns="http://www.w3.org/2000/svg"><path d="M231.15 447.3a7.5 7.5 0 00-7.5 7.5v8.28a7.5 7.5 0 0015 0v-8.28a7.5 7.5 0 00-7.5-7.5zm49.7 0a7.5 7.5 0 00-7.5 7.5v8.28a7.5 7.5 0 0015 0v-8.28a7.5 7.5 0 00-7.5-7.5zm-8.28-426.6a7.5 7.5 0 00-7.5 7.5v13.21h-18.14v-13.2a7.5 7.5 0 10-15 0v41.42a7.5 7.5 0 1015 0V56.41h18.14v13.2a7.5 7.5 0 1015 0V28.22a7.5 7.5 0 00-7.5-7.5z"/><path d="M487.93 248.5h-91.9V123.47a7.5 7.5 0 00-7.5-7.5h-.78V97.83h9.07a7.5 7.5 0 007.5-7.5V57.2a7.5 7.5 0 00-7.5-7.5h-91.9V7.5a7.5 7.5 0 00-7.5-7.5h-82.84a7.5 7.5 0 00-7.5 7.5v42.2h-91.9a7.5 7.5 0 00-7.5 7.5v33.13a7.5 7.5 0 007.5 7.5h9.07v18.14h-.78a7.5 7.5 0 00-7.5 7.5v66.26a7.5 7.5 0 1015 0v-58.76h250.06V497h-26.41v-18.14h4.92a7.5 7.5 0 007.5-7.5v-49.7a7.5 7.5 0 00-7.5-7.5H334.7a7.5 7.5 0 00-7.5 7.5v49.7a7.5 7.5 0 007.5 7.5h4.93V497H313.2v-84.4h9.07a7.5 7.5 0 007.5-7.5v-33.13a7.5 7.5 0 00-7.5-7.5H189.74a7.5 7.5 0 00-7.5 7.5v33.13a7.5 7.5 0 007.5 7.5h9.06V497h-26.42v-18.14h4.93a7.5 7.5 0 007.5-7.5v-49.7a7.5 7.5 0 00-7.5-7.5h-24.85a7.5 7.5 0 00-7.5 7.5v49.7a7.5 7.5 0 007.5 7.5h4.92V497h-26.41V219.7a7.5 7.5 0 10-15 0v28.8h-91.9a7.5 7.5 0 00-7.5 7.5v165.66a7.5 7.5 0 007.5 7.5h9.06v75.34a7.5 7.5 0 007.5 7.5h430.74a7.5 7.5 0 007.5-7.5v-75.33h9.06a7.5 7.5 0 007.5-7.5V256a7.5 7.5 0 00-7.5-7.5zM115.97 497H48.13v-67.83h67.84V497zm0-82.83h-84.4V263.5h84.4v150.67zm53.84 49.7h-9.85v-34.7h9.85v34.7zM248.24 497H213.8v-84.4h34.44V497zm49.96 0h-34.96v-84.4h34.96V497zm-91.9-99.4h-9.07v-18.13h117.54v18.13H206.3zm145.74 66.26h-9.85v-34.7h9.85v34.7zM222.08 15h67.84v67.83h-67.84V15zm-90.33 67.83h-9.07V64.7h84.4v18.13h-75.33zm241 33.14h-233.5V97.83h233.5v18.14zm7.54-33.14H304.9V64.7h84.4v18.13h-9.02zM463.87 497h-67.84v-67.83h67.84V497zm16.56-82.83h-84.4V263.5h84.4v150.67z"/><path d="M90.33 281.63H57.2a7.5 7.5 0 00-7.5 7.5v33.14a7.5 7.5 0 007.5 7.5h33.13a7.5 7.5 0 007.5-7.5v-33.14a7.5 7.5 0 00-7.5-7.5zm-7.5 33.14H64.7v-18.14h18.13v18.14zm106.9-33.14H156.6a7.5 7.5 0 00-7.5 7.5v33.14a7.5 7.5 0 007.5 7.5h33.13a7.5 7.5 0 007.5-7.5v-33.14a7.5 7.5 0 00-7.5-7.5zm-7.5 33.14H164.1v-18.14h18.13v18.14zm173.17-33.14h-33.13a7.5 7.5 0 00-7.5 7.5v33.14a7.5 7.5 0 007.5 7.5h33.13a7.5 7.5 0 007.5-7.5v-33.14a7.5 7.5 0 00-7.5-7.5zm-7.5 33.14h-18.13v-18.14h18.13v18.14zm-75.6-33.14h-33.12a7.5 7.5 0 00-7.5 7.5v33.14a7.5 7.5 0 007.5 7.5h33.13a7.5 7.5 0 007.5-7.5v-33.14a7.5 7.5 0 00-7.5-7.5zm-7.5 33.14h-18.12v-18.14h18.13v18.14zm-75.07-99.4H156.6a7.5 7.5 0 00-7.5 7.5V256a7.5 7.5 0 007.5 7.5h33.13a7.5 7.5 0 007.5-7.5v-33.13a7.5 7.5 0 00-7.5-7.5zm-7.5 33.13H164.1v-18.14h18.13v18.14zm173.17-33.13h-33.13a7.5 7.5 0 00-7.5 7.5V256a7.5 7.5 0 007.5 7.5h33.13a7.5 7.5 0 007.5-7.5v-33.13a7.5 7.5 0 00-7.5-7.5zm-7.5 33.13h-18.13v-18.14h18.13v18.14zm-75.6-33.13h-33.12a7.5 7.5 0 00-7.5 7.5V256a7.5 7.5 0 007.5 7.5h33.13a7.5 7.5 0 007.5-7.5v-33.13a7.5 7.5 0 00-7.5-7.5zm-7.5 33.13h-18.12v-18.14h18.13v18.14zm-75.07-99.4H156.6a7.5 7.5 0 00-7.5 7.5v33.13a7.5 7.5 0 007.5 7.5h33.13a7.5 7.5 0 007.5-7.5V156.6a7.5 7.5 0 00-7.5-7.5zm-7.5 33.13H164.1V164.1h18.13v18.13zM355.4 149.1h-33.13a7.5 7.5 0 00-7.5 7.5v33.13a7.5 7.5 0 007.5 7.5h33.13a7.5 7.5 0 007.5-7.5V156.6a7.5 7.5 0 00-7.5-7.5zm-7.5 33.13h-18.13V164.1h18.13v18.13zm-75.6-33.13h-33.12a7.5 7.5 0 00-7.5 7.5v33.13a7.5 7.5 0 007.5 7.5h33.13a7.5 7.5 0 007.5-7.5V156.6a7.5 7.5 0 00-7.5-7.5zm-7.5 33.13h-18.12V164.1h18.13v18.13zm190 99.4h-33.13a7.5 7.5 0 00-7.5 7.5v33.14a7.5 7.5 0 007.5 7.5h33.13a7.5 7.5 0 007.5-7.5v-33.14a7.5 7.5 0 00-7.5-7.5zm-7.5 33.14h-18.13v-18.14h18.13v18.14zM90.33 347.9H57.2a7.5 7.5 0 00-7.5 7.5v33.13a7.5 7.5 0 007.5 7.5h33.13a7.5 7.5 0 007.5-7.5V355.4a7.5 7.5 0 00-7.5-7.5zm-7.5 33.13H64.7V362.9h18.13v18.13zM454.8 347.9h-33.13a7.5 7.5 0 00-7.5 7.5v33.13a7.5 7.5 0 007.5 7.5h33.13a7.5 7.5 0 007.5-7.5V355.4a7.5 7.5 0 00-7.5-7.5zm-7.5 33.13h-18.13V362.9h18.13v18.13z"/></svg><svg version="1" viewBox="0 0 449 449" id="checkbox" xmlns="http://www.w3.org/2000/svg"><path d="M143 324L36 217 0 252l143 143L449 89l-36-35z"/></svg><svg viewBox="0 0 490.2 490.2" id="email" xmlns="http://www.w3.org/2000/svg"><path d="M420.95 61.8C376.25 20.6 320.65 0 254.25 0c-69.8 0-129.3 23.4-178.4 70.3s-73.7 105.2-73.7 175c0 66.9 23.4 124.4 70.1 172.6 46.9 48.2 109.9 72.3 189.2 72.3 47.8 0 94.7-9.8 140.7-29.5 15-6.4 22.3-23.6 16.2-38.7a29.9 29.9 0 00-39.6-16.2c-40 17.2-79.2 25.8-117.4 25.8-60.8 0-107.9-18.5-141.3-55.6-33.3-37-50-80.5-50-130.4 0-54.2 17.9-99.4 53.6-135.7 35.6-36.2 79.5-54.4 131.5-54.4 47.9 0 88.4 14.9 121.4 44.7s49.5 67.3 49.5 112.5c0 30.9-7.6 56.7-22.7 77.2-15.1 20.6-30.8 30.8-47.1 30.8-8.8 0-13.2-4.7-13.2-14.2 0-7.7.6-16.7 1.7-27.1l18.6-152.1h-64l-4.1 14.9c-16.3-13.3-34.2-20-53.6-20-30.8 0-57.2 12.3-79.1 36.8-22 24.5-32.9 56.1-32.9 94.7 0 37.7 9.7 68.2 29.2 91.3 19.5 23.2 42.9 34.7 70.3 34.7 24.5 0 45.4-10.3 62.8-30.8 13.1 19.7 32.4 29.5 57.9 29.5 37.5 0 69.9-16.3 97.2-49 27.3-32.6 41-72 41-118.1 0-58.4-22.3-108.3-67.1-149.5zm-147.4 230.1c-11.3 15.2-24.8 22.9-40.5 22.9-10.7 0-19.3-5.6-25.8-16.8-6.6-11.2-9.9-25.1-9.9-41.8 0-20.6 4.6-37.2 13.8-49.8s20.6-19 34.2-19c11.8 0 22.3 4.7 31.5 14.2s13.8 22.1 13.8 37.9c-.1 19.7-5.8 37.1-17.1 52.4z"/></svg><svg viewBox="-1 0 512 512" id="finance" xmlns="http://www.w3.org/2000/svg"><path d="M502.7 337.92c4.2 0 7.6-3.4 7.6-7.6v-183.5c0-10.4-4.05-20.2-11.4-27.59a38.82 38.82 0 00-27.58-11.39H384.8V7.6c0-4.2-3.4-7.6-7.6-7.6H191.5a7.6 7.6 0 00-7.6 7.6v107.82a7.6 7.6 0 1015.2 0V15.2h170.5v92.63h-83.98a38.81 38.81 0 00-36.49 25.33 36.55 36.55 0 00-5.26-.38H77.55a7.6 7.6 0 100 15.2h166.32a21.35 21.35 0 0121.33 21.33v306.15a21.35 21.35 0 01-21.33 21.33H36.54a21.35 21.35 0 01-21.33-21.33V169.32a21.35 21.35 0 0121.33-21.33H52.2a7.6 7.6 0 100-15.2H36.54A36.57 36.57 0 000 169.32v306.15A36.57 36.57 0 0036.54 512h207.33a36.57 36.57 0 0036.54-36.53V185.8h29v287.45c0 4.2 3.4 7.6 7.6 7.6H502.7c4.2 0 7.6-3.4 7.6-7.6V355.66a7.6 7.6 0 10-15.2 0v109.98H324.6V146.82c0-8.7-2.83-16.98-8.06-23.77h154.77a23.68 23.68 0 0123.77 23.77v183.5c0 4.2 3.41 7.6 7.6 7.6zM302.45 130a23.66 23.66 0 016.96 16.83v23.77h-29v-1.27c0-12.97-6.81-24.38-17.03-30.86a23.68 23.68 0 0122.26-15.4h.02c6.34 0 12.3 2.47 16.79 6.93zm0 0"/><path d="M250 170.8c0-4.2-3.41-7.6-7.6-7.6H38a7.6 7.6 0 00-7.6 7.6V246c0 4.2 3.4 7.6 7.6 7.6h204.4c4.2 0 7.6-3.4 7.6-7.6zm-15.21 67.6H45.62v-60h189.17zm7.61 32.05H38a7.6 7.6 0 00-7.6 7.6v196.76c0 4.2 3.4 7.6 7.6 7.6h204.4c4.2 0 7.6-3.4 7.6-7.6V278.05c0-4.2-3.4-7.6-7.6-7.6zm-7.61 67.24h-51.5v-52.04h51.5zm0 62.27h-51.5V352.9h51.5zM45.62 352.9h51.5v47.07h-51.5zm66.7 0h55.77v47.07h-55.77zm55.77-67.24v52.04h-55.77v-52.04zm-70.98 0v52.04h-51.5v-52.04zm-51.5 129.52h51.5v52.04h-51.5zm66.7 52.04v-52.04h55.78v52.04zm70.98 0v-52.04h51.5v52.04zm183.67-320.88h-20.28a7.6 7.6 0 100 15.2h20.28a7.6 7.6 0 000-15.2zm106.44 0h-80.1a7.6 7.6 0 100 15.2h80.08a7.6 7.6 0 100-15.2zm-106.44 171.3h-20.28a7.6 7.6 0 000 15.21h20.28a7.6 7.6 0 000-15.2zM481 325.25c0-4.2-3.41-7.6-7.6-7.6h-80.1a7.6 7.6 0 000 15.2h80.08c4.2 0 7.6-3.4 7.6-7.6zm-114.04-50.43h-20.28a7.6 7.6 0 100 15.2h20.28a7.6 7.6 0 000-15.2zm106.44 0h-80.1a7.6 7.6 0 100 15.2h80.08a7.6 7.6 0 100-15.2zM366.96 232h-20.28a7.6 7.6 0 100 15.2h20.28a7.6 7.6 0 000-15.2zm106.44 0h-80.1a7.6 7.6 0 100 15.2h80.08a7.6 7.6 0 100-15.2zm-106.44-42.84h-20.28a7.6 7.6 0 100 15.2h20.28a7.6 7.6 0 000-15.2zm106.44 0h-80.1a7.6 7.6 0 100 15.2h80.08a7.6 7.6 0 100-15.2zM220.98 50.66h20.28a7.6 7.6 0 000-15.21h-20.28a7.6 7.6 0 100 15.2zm46.63 0h80.09a7.6 7.6 0 000-15.21h-80.1a7.6 7.6 0 000 15.2zm-46.63 42.82h20.28a7.6 7.6 0 000-15.2h-20.28a7.6 7.6 0 100 15.2zm46.63 0h80.09a7.6 7.6 0 000-15.2h-80.1a7.6 7.6 0 000 15.2zm142.47 351.77a4.41 4.41 0 003.02 1.13h.18a5.23 5.23 0 005.22-5.22v-1.1c11.86-2.54 18.66-10.75 18.66-22.55 0-13.36-8.95-18.7-18.66-22.45v-18.73a21.7 21.7 0 016.92 2.42c1.46.73 2.62 1.32 3.9 1.32 4.13 0 5.92-5.05 5.92-7.62 0-5.5-8.6-8.04-16.74-8.6v-1.13a5.23 5.23 0 00-10.44 0v1.46c-12.43 2.08-19.56 9.68-19.56 20.87 0 13.75 11.25 18.07 19.56 21.2v21.02c-4.58-.87-7.56-3.18-9.97-5.05-1.96-1.52-3.5-2.73-5.28-2.73-3.56 0-6.23 4.69-6.23 7.73 0 5.74 8.81 12.62 21.48 13.41v.52c0 1.62.74 3.12 2.02 4.1zm-2.02-68.3v14.14c-3.17-1.46-6.03-3.41-6.03-7.43 0-3.22 2.09-5.54 6.03-6.7zm10.44 49.63v-15.9c3.54 2.1 5.13 4.65 5.13 8.21 0 3.6-1.77 6.25-5.13 7.69zm0 0"/><path d="M202.23 229.46h16.22a7.6 7.6 0 000-15.21h-16.22a7.6 7.6 0 000 15.2zm0 0"/></svg><svg viewBox="0 -45 512 512" id="forklift" xmlns="http://www.w3.org/2000/svg"><path d="M123.14 342.48a7.5 7.5 0 007.5-7.5v-25.94a7.5 7.5 0 00-7.5-7.5H86.49a7.5 7.5 0 00-7.5 7.5v25.94a7.5 7.5 0 007.5 7.5zm-29.15-25.94h21.65v10.94H93.99zM86.5 214.35h36.64a7.5 7.5 0 007.5-7.5v-25.94a7.5 7.5 0 00-7.5-7.5H86.49a7.5 7.5 0 00-7.5 7.5v25.94a7.5 7.5 0 007.5 7.5zm7.5-25.94h21.64v10.94H93.99zm0 0"/><path d="M504.5 297.9a7.5 7.5 0 007.5-7.5v-77.84c0-9.56-7.78-17.34-17.34-17.34h-8.25V79.6a17.37 17.37 0 0013.86-16.99V51.8c0-9.56-7.78-17.34-17.34-17.34H299.88a17.36 17.36 0 00-17.34 17.34v10.8c0 9.57 7.78 17.34 17.34 17.34h4.17l-44.9 120.6a20.47 20.47 0 00-14.95 19.69v73.72a31.1 31.1 0 00-13.95 3.61v-128.4a25.91 25.91 0 0021.6-25.51V48.18a25.91 25.91 0 00-21.6-25.52v-5.32C230.25 7.78 222.47 0 212.9 0h-15.47a17.36 17.36 0 00-17.34 17.34v85.06a7.5 7.5 0 1015 0V17.34c0-1.29 1.05-2.34 2.34-2.34h15.47a2.34 2.34 0 012.34 2.34v174.3H195.1v-56.58a7.5 7.5 0 10-15 0v218.63h-25.63c.1-.8.19-1.6.19-2.42v-108.3c0-3.68-1.16-7.1-3.12-9.91a17.31 17.31 0 003.12-9.91v-108.3c0-9.6-7.81-17.42-17.41-17.42H28.95c-9.6 0-17.41 7.81-17.41 17.41v108.3c0 3.69 1.15 7.1 3.1 9.92a17.31 17.31 0 00-3.1 9.9v52.44a7.5 7.5 0 1015 0v-52.43a2.4 2.4 0 012.4-2.4h27.42v30.97a7.5 7.5 0 007.5 7.5h38.48a7.5 7.5 0 007.5-7.5v-30.98h27.4a2.4 2.4 0 012.42 2.4v108.31a2.41 2.41 0 01-2.41 2.41H28.95a2.41 2.41 0 01-2.41-2.4v-23.22a7.5 7.5 0 10-15 0v23.21a17 17 0 00.18 2.42H7.5a7.5 7.5 0 100 15h183.13a47.76 47.76 0 0047.44 52.77 47.8 47.8 0 0046.38-36.53H396.9a47.8 47.8 0 0046.38 36.53 47.79 47.79 0 0046.37-36.53h5c9.56 0 17.34-7.77 17.34-17.34v-44.53a7.5 7.5 0 10-15 0v44.53a2.34 2.34 0 01-2.34 2.34h-3.83a47.76 47.76 0 00-47.54-43.9 47.77 47.77 0 00-47.55 43.9h-13.02l-17.49-28.4a7.5 7.5 0 00-6.39-3.58h-49.2a7.5 7.5 0 00-7.5 7.5v24.48h-16.52a47.77 47.77 0 00-56.97-42.96v-1.87c0-8.9 7.25-16.15 16.16-16.15h129.7c4.63 0 8.98-1.8 12.26-5.08l93.65-93.65h14.25a2.34 2.34 0 012.34 2.34v77.84a7.5 7.5 0 007.5 7.5zM71.36 112.43h23.48v23.48H71.36zm-44.82 2.41a2.41 2.41 0 012.4-2.4h27.42v30.97a7.5 7.5 0 007.5 7.5h38.48a7.5 7.5 0 007.5-7.5v-30.98h27.41c1.33 0 2.4 1.09 2.4 2.41v108.3a2.41 2.41 0 01-2.4 2.42H28.95a2.41 2.41 0 01-2.41-2.41zm68.3 149.2H71.36v-23.48h23.48zm348.45 77a32.75 32.75 0 0132.7 32.7 32.75 32.75 0 01-32.7 32.72 32.75 32.75 0 01-32.72-32.71 32.75 32.75 0 0132.72-32.71zm-126.15 11.91h37.52l10.45 16.98h-47.97zM236.86 48.18v95.48a10.9 10.9 0 01-6.61 10V38.18a10.9 10.9 0 016.6 10zm-21.61 158.46v42.05H195.1v-42.05zm55.53 167.1a32.75 32.75 0 01-32.71 32.72 32.75 32.75 0 01-32.71-32.71 32.75 32.75 0 0132.71-32.71 32.75 32.75 0 0132.71 32.7zm-74.6-22.82h-1.08V263.7h20.15v51.58a31 31 0 00-1.6 9.83v7.68a48.1 48.1 0 00-17.47 18.14zm101.36-288.3V51.78c0-1.3 1.05-2.34 2.34-2.34h183.05a2.34 2.34 0 012.34 2.34V62.6a2.34 2.34 0 01-2.34 2.34H299.88a2.34 2.34 0 01-2.34-2.34zM471.4 79.94V198l-13.73 13.73v-69.5c0-18.19-14.8-32.99-33-32.99s-32.98 14.8-32.98 32.99v98.25a6.38 6.38 0 01-6.38 6.38h-80.5a6.39 6.39 0 01-6.38-6.38v-17.14l13.6-13.6 1.72 1.74a7.48 7.48 0 0010.6 0 7.5 7.5 0 000-10.6l-1.72-1.74 1.73-1.73a7.5 7.5 0 10-10.6-10.6l-1.73 1.73-1.74-1.73a7.5 7.5 0 10-10.6 10.6l1.73 1.73-7.87 7.87a20.4 20.4 0 00-15.57-7.22h-2.54l44.61-119.83H471.4zm-71.66 189.71H259.2v-49.42c0-3 2.43-5.44 5.43-5.45h13.35c3.01 0 5.46 2.44 5.46 5.44v20.25a21.4 21.4 0 0021.38 21.38h80.5a21.4 21.4 0 0021.38-21.38v-98.25c0-9.92 8.07-17.99 17.98-17.99 9.93 0 18 8.07 18 17.99v28.03h-5.1a7.5 7.5 0 100 15h5.1v3.14h-5.1a7.5 7.5 0 100 15h5.1v22.83c0 .16 0 .32.02.48zm-25.25 24.29H259.2v-9.29h125.55l-8.6 8.6c-.44.44-1.04.69-1.65.69zm0 0"/><path d="M238.07 396.57a22.85 22.85 0 0022.82-22.82 22.85 22.85 0 00-22.82-22.83 22.85 22.85 0 00-22.82 22.83 22.85 22.85 0 0022.82 22.82zm0-30.65a7.84 7.84 0 010 15.65 7.84 7.84 0 010-15.65zm205.22 30.65a22.85 22.85 0 0022.82-22.82 22.85 22.85 0 00-22.82-22.83 22.85 22.85 0 00-22.83 22.83 22.85 22.85 0 0022.83 22.82zm0-30.65a7.83 7.83 0 010 15.65 7.84 7.84 0 010-15.65zm29.03-115.03l-8.55 8.55a7.5 7.5 0 0010.6 10.6l8.56-8.55a7.5 7.5 0 00-10.61-10.6zm0 0"/></svg><svg viewBox="0 0 480 480" id="graphic" xmlns="http://www.w3.org/2000/svg"><path d="M412 16h-24V8a8 8 0 00-16 0v8h-16V8a8 8 0 00-16 0v8h-16V8a8 8 0 00-16 0v8h-16V8a8 8 0 00-16 0v8H164V8a8 8 0 00-16 0v8h-16V8a8 8 0 00-16 0v8h-16V8a8 8 0 00-16 0v8H68V8a8 8 0 00-16 0v8H28a8 8 0 00-8 8v376a8 8 0 008 8h232.4a8 8 0 008-8.56l-.06-.93A79.92 79.92 0 01268 392c.03-7.92.96-15.8 2.78-23.51a102.2 102.2 0 017.93-22.17c.35-.7.66-1.42 1.02-2.11 1.06-2.03 2.21-4 3.4-5.96.38-.62.75-1.25 1.14-1.86 1.3-2.03 2.66-4.01 4.1-5.94l.9-1.22c1.6-2.09 3.26-4.12 4.99-6.08l.24-.26a105.42 105.42 0 0141.84-28.49l1.41-.52c2.16-.76 4.35-1.43 6.57-2.06 1-.28 2.02-.53 3.03-.8 1.87-.46 3.75-.9 5.66-1.25 1.6-.3 3.26-.52 4.9-.75 1.45-.2 2.88-.44 4.35-.57 3.2-.3 6.45-.5 9.74-.5 2.17 0 4.3.17 6.4.31l1 .08h.2a104.5 104.5 0 0129.5 6.6 8 8 0 0010.9-7.45V24a8 8 0 00-8-8zM268.43 331.7c-.28.46-.57.9-.83 1.35-1.15 2.02-2.2 4.11-3.2 6.2-.57 1.16-1.14 2.3-1.67 3.48-.87 1.93-1.69 3.9-2.46 5.88l-.25.58V312h22.81a120.83 120.83 0 00-14.4 19.7zM308 290.67c-2.75 1.75-5.4 3.6-8 5.55V296h-40v-48h48v42.67zm0-58.67h-48v-48h48v48zm0-64h-48v-48h48v48zm64 16v48h-48v-48h48zm-48-16v-48h48v48h-48zm48.02 104c-3.75 0-7.44.22-11.1.56-1.6.14-3.1.4-4.66.6-1.96.26-3.9.53-5.84.89a115.67 115.67 0 00-9.7 2.23c-2.4.66-4.8 1.37-7.2 2.17-.31.11-.6.23-.91.33-2.91 1.02-5.8 2.08-8.6 3.3V248h48v24zm31.98 4.42a118.88 118.88 0 00-16-3.32V112a8 8 0 00-8-8H60a8 8 0 00-8 8v256a8 8 0 008 8h193.2c-.76 5.3-1.16 10.65-1.2 16H36V88h368v188.42zM196 296v-48h48v48h-48zm48 16v48h-48v-48h48zm-48-80v-48h48v48h-48zm0-64v-48h48v48h-48zm-64 128v-48h48v48h-48zm48 16v48h-48v-48h48zm-48-80v-48h48v48h-48zm0-64v-48h48v48h-48zM68 296v-48h48v48H68zm48 16v48H68v-48h48zm-48-80v-48h48v48H68zm0-64v-48h48v48H68zm336-96H36V32h16v8a8 8 0 0016 0v-8h16v8a8 8 0 0016 0v-8h16v8a8 8 0 0016 0v-8h16v8a8 8 0 0016 0v-8h112v8a8 8 0 0016 0v-8h16v8a8 8 0 0016 0v-8h16v8a8 8 0 0016 0v-8h16v8a8 8 0 0016 0v-8h16v40z"/><path d="M372 304a88 88 0 1088 88 88.1 88.1 0 00-88-88zm0 160a72 72 0 1172-72 72.08 72.08 0 01-72 72z"/><path d="M417.46 346.34a8 8 0 00-11.12 0L372 380.7l-18.34-18.35a8 8 0 00-11.32 11.32l24 24a8 8 0 0011.32 0l40-40a8 8 0 00-.2-11.32z"/></svg><svg viewBox="0 0 97.39 97.39" id="instagram" xmlns="http://www.w3.org/2000/svg"><path d="M12.5 0h72.4c6.87 0 12.5 5.09 12.5 12.5v72.4c0 7.4-5.63 12.5-12.5 12.5H12.5C5.62 97.4 0 92.3 0 84.9V12.5C0 5.09 5.62 0 12.5 0zm58.45 10.82a4.4 4.4 0 00-4.39 4.39v10.5a4.4 4.4 0 004.39 4.38h11a4.4 4.4 0 004.4-4.39V15.2a4.4 4.4 0 00-4.4-4.38h-11zM86.39 41.2h-8.57a28.49 28.49 0 011.25 8.35c0 16.2-13.56 29.34-30.28 29.34S18.52 65.73 18.52 49.53c0-2.9.44-5.7 1.25-8.35h-8.95v41.14a3.88 3.88 0 003.88 3.87h67.82a3.88 3.88 0 003.87-3.87V41.19zm-37.6-11.66c-10.8 0-19.56 8.49-19.56 18.96 0 10.46 8.76 18.95 19.56 18.95 10.8 0 19.56-8.49 19.56-18.95 0-10.47-8.76-18.96-19.56-18.96z"/></svg><svg version="1" viewBox="0 0 472 472" id="like" xmlns="http://www.w3.org/2000/svg"><path d="M434 67c-25-25-58-38-93-38s-67 13-92 38l-13 13-13-13A130 130 0 000 159c0 35 14 68 38 92l188 188c3 3 6 4 10 4 3 0 7-1 9-4l188-187a130 130 0 001-185zm-20 166L236 411 57 232a103 103 0 010-146 103 103 0 01147 0l22 23c6 5 14 5 20 0l22-23a103 103 0 01146 0 102 102 0 010 147z"/></svg><svg viewBox="0 0 512 512" id="location" xmlns="http://www.w3.org/2000/svg"><path d="M256 0C153.75 0 70.57 83.18 70.57 185.43c0 126.88 165.94 313.16 173 321.03a16.7 16.7 0 0024.85 0c7.07-7.87 173-194.15 173-321.03C441.43 83.18 358.25 0 256 0zm0 278.72c-51.44 0-93.3-41.85-93.3-93.3s41.86-93.29 93.3-93.29 93.3 41.86 93.3 93.3-41.86 93.29-93.3 93.29z"/></svg><svg version="1" viewBox="0 0 453 453" id="mail" xmlns="http://www.w3.org/2000/svg"><path d="M449 190l-57-38V24c0-4-4-8-8-8H69c-4 0-8 4-8 8v128L3 190c-2 2-3 4-3 7v232c0 4 3 7 7 7h438c4 0 8-3 8-7V197c0-3-1-5-4-7zM61 217l-23-13h23v13zm-46-8l172 92L15 415V209zm211 84l194 128H32l194-128zm39 8l173-92v206L265 301zm127-97h23l-23 13v-13zm28-15h-28v-19l28 19zM377 31v194l-126 66-20-13c-3-2-6-2-9 0l-20 13-126-66V31h301zM61 189H32l29-19v19z"/><path d="M226 214h60a8 8 0 000-15h-60c-28 0-52-24-52-53v-2a52 52 0 01105 0v6a11 11 0 01-23 0v-11a32 32 0 10-11 25 26 26 0 0049-14v-6a67 67 0 00-135 0v2c0 38 30 68 67 68zm-2-57a17 17 0 110-35 17 17 0 010 35z"/></svg><svg viewBox="0 0 48.43 48.43" id="mastercard" xmlns="http://www.w3.org/2000/svg"><path d="M33.93 9.72c-3.74 0-7.15 1.41-9.72 3.74a14.44 14.44 0 00-9.72-3.74h-.09a14.5 14.5 0 00.1 28.99c3.73 0 7.14-1.42 9.71-3.75a14.34 14.34 0 01-1.48-1.58h3a14.5 14.5 0 01-1.48 1.55l-.04.03a14.5 14.5 0 0024.22-10.75c0-8-6.5-14.5-14.5-14.5zM22.9 14.96h2.76c.4.5.78 1.01 1.12 1.55h-4.91c.32-.52.66-1.05 1.03-1.55zM21 18.03h6.61c.23.5.44 1.03.63 1.56h-8.02c.08-.15.36-.76.78-1.55zM5.92 27.91l.88-5.55-1.99 5.55H3.75l-.14-5.55-.94 5.55H1.18l1.24-7.35h2.25l.08 4.5 1.52-4.5h2.44L7.5 27.9H5.92zm5.26-.02l.05-.58c-.02 0-.5.7-1.58.7-.57 0-1.49-.3-1.49-1.66 0-1.72 1.4-2.29 2.74-2.29.2 0 .66.04.66.04s.05-.1.05-.39c0-.46-.42-.53-1-.53-1 0-1.68.27-1.68.27l.23-1.33s.81-.34 1.87-.34c.54 0 2.12.06 2.12 1.86l-.6 4.25h-1.37zm5.75-1.87c0 2.05-2 1.96-2.34 1.96-1.3 0-1.7-.17-1.73-.18l.2-1.35c0-.02.66.23 1.38.23.41 0 .95-.04.95-.54 0-.74-1.93-.56-1.93-2.33 0-1.56 1.16-2.02 2.3-2.02.88 0 1.42.13 1.42.13l-.2 1.36s-.83-.07-1.04-.07c-.55 0-.85.12-.85.5 0 .77 1.84.4 1.84 2.31zm2.38.54c.14 0 .3-.05.4-.05l-.2 1.31c-.15.05-.59.2-1.15.2-.72.01-1.23-.39-1.23-1.3 0-.61.88-5.66.91-5.69h1.54l-.15.9h.77L20 23.4h-.82l-.43 2.67c-.04.22.02.5.56.5zm3.4-4.8c1.69 0 2.2 1.24 2.2 2.26 0 .4-.2 1.4-.2 1.4h-3.14s-.3 1.24 1.36 1.24c.78 0 1.64-.38 1.64-.38l-.27 1.49s-.5.25-1.63.25c-1.23 0-2.67-.52-2.67-2.7 0-1.89 1.15-3.56 2.7-3.56zm4.08 10.13h-5.14c-.31-.5-.6-1.02-.86-1.56h6.85c-.25.54-.54 1.06-.85 1.56zm-.34-3.97h-1.59l.97-5.99h1.43l-.13.87s.5-.94 1.2-.94c.2 0 .3.02.3.02-.2.42-.39.8-.58 1.79-1.07-.38-1.15 1.7-1.6 4.25zm6.03-.1s-.83.22-1.35.22c-1.84 0-2.78-1.27-2.78-3.2 0-2.9 1.74-4.45 3.52-4.45.8 0 1.74.38 1.74.38l-.26 1.63s-.63-.44-1.41-.44c-1.05 0-2 1-2 2.83 0 .9.45 1.73 1.54 1.73a3.7 3.7 0 001.28-.38l-.28 1.68zm3.72.08l.05-.6c-.03 0-.5.71-1.58.71-.57 0-1.5-.3-1.5-1.66 0-1.72 1.4-2.29 2.74-2.29.21 0 .67.04.67.04s.05-.1.05-.39c0-.46-.42-.53-1-.53-1.01 0-1.68.27-1.68.27l.22-1.33s.82-.34 1.87-.34c.55 0 2.12.06 2.12 1.86l-.6 4.25H36.2zm3.2.02h-1.58l.96-5.99h1.44l-.14.87s.52-.94 1.2-.94c.2 0 .3.02.3.02-.2.42-.38.8-.57 1.79-1.07-.38-1.16 1.7-1.6 4.25zm4.73-.02l.07-.55s-.51.65-1.44.65c-1.28 0-1.91-1.24-1.91-2.5 0-1.97 1.18-3.67 2.6-3.67.9 0 1.48.8 1.48.8l.34-2.06h1.54l-1.18 7.33h-1.5zm3.05-.2a.46.46 0 01-.4.23.47.47 0 01-.4-.24.46.46 0 010-.46c.04-.08.1-.14.17-.18a.48.48 0 01.23-.06c.08 0 .15.02.23.06.07.04.13.1.17.18a.46.46 0 010 .46z"/><path d="M47.06 32.12l-.03-.03h-.18v.14h.1c.05 0 .08 0 .1-.02a.07.07 0 00.02-.05v-.04z"/><path d="M47.38 32.03a.43.43 0 00-.17-.18.47.47 0 00-.23-.06.47.47 0 00-.23.06.43.43 0 00-.18.18.47.47 0 00.4.7.47.47 0 00.41-.7zm-.28.49l-.05-.08a.42.42 0 00-.08-.12.11.11 0 00-.07-.02h-.04v.22h-.09v-.5h.3l.07.06.02.07c0 .04-.01.07-.04.1a.16.16 0 01-.1.04.1.1 0 01.04.03l.08.1.06.1h-.1zm-36.08-7.31c-1.13 0-1.36.5-1.36.93 0 .22.13.58.6.58.94 0 1.13-1.21 1.1-1.47-.05-.01-.07-.04-.34-.04zm11.69-2.07c-.84 0-1 .96-1 1.06h1.71c0-.07.16-1.06-.7-1.06zm20.99.17c-.67 0-1.2.79-1.2 1.99 0 .73.25 1.2.81 1.2.84 0 1.24-1.1 1.24-1.91 0-.9-.29-1.28-.84-1.28zm3.42 3.96a.38.38 0 00-.15-.15.38.38 0 00-.53.15.4.4 0 00-.05.2c0 .06.02.13.05.19a.4.4 0 00.34.2.4.4 0 00.2-.06.39.39 0 00.14-.54zm-.22.45l-.05-.08a.4.4 0 00-.08-.12.1.1 0 00-.07-.01h-.04v.2h-.09v-.5h.18l.13.02.06.05c.02.02.02.05.02.07 0 .04-.01.07-.04.1-.02.03-.06.04-.1.04l.04.03.08.1.06.1h-.1zm-10.86-2.51c-1.13 0-1.36.5-1.36.93 0 .22.12.58.6.58.93 0 1.12-1.21 1.1-1.47-.05-.01-.08-.04-.34-.04z"/><path d="M46.86 27.32a.1.1 0 00-.03-.03.28.28 0 00-.08 0h-.1v.15h.1l.1-.02a.08.08 0 00.03-.06c0-.02 0-.03-.02-.04z"/></svg><svg viewBox="0 0 512 512" id="money" xmlns="http://www.w3.org/2000/svg"><path d="M429.6 73.08H25.66A25.69 25.69 0 000 98.74v202.18a25.69 25.69 0 0025.66 25.65h15.48a7.29 7.29 0 100-14.57H25.66a11.1 11.1 0 01-11.09-11.08V98.74a11.1 11.1 0 0111.09-11.09H429.6a11.1 11.1 0 0111.08 11.09v70.82a7.29 7.29 0 0014.57 0V98.74a25.69 25.69 0 00-25.65-25.66z"/><path d="M426.46 128.05A49.82 49.82 0 01400.68 102a13.53 13.53 0 00-12.46-8.18H67.04A13.53 13.53 0 0054.58 102a49.82 49.82 0 01-25.79 26.05 13.54 13.54 0 00-8.05 12.4V259.2c0 5.39 3.16 10.25 8.05 12.4a49.89 49.89 0 018.12 4.54 7.28 7.28 0 008.25-12.01c-3.1-2.14-6.42-4.01-9.85-5.57V141.1a64.33 64.33 0 0032.38-32.7h319.88a64.34 64.34 0 0032.37 32.7v28.53a7.29 7.29 0 1014.57 0v-29.17c0-5.38-3.15-10.25-8.05-12.4z"/><path d="M302.62 166.9a81.95 81.95 0 00-75-48.96 81.96 81.96 0 00-74.96 48.9 7.29 7.29 0 0013.33 5.87 67.38 67.38 0 0161.64-40.2c26.7 0 50.9 15.8 61.65 40.25a7.29 7.29 0 1013.34-5.87z"/><path d="M486.34 185.43H232.51v-18.6c9.42.68 12.92 4.98 16.15 4.98 4.03 0 5.91-5.11 5.91-7.67 0-6.59-12.91-9.41-22.06-9.68v-3.63c0-1.62-2.01-3.1-4.03-3.1-2.29 0-3.9 1.48-3.9 3.1v3.9c-12.78 1.34-25.56 8.07-25.56 25.02 0 2.07.2 3.95.56 5.68H82.4a25.69 25.69 0 00-25.66 25.65v202.18a25.69 25.69 0 0025.66 25.66h403.94A25.69 25.69 0 00512 413.26V211.09a25.69 25.69 0 00-25.66-25.66zM225.38 167.1v18.33h-10.54a10.51 10.51 0 01-2.37-7.03c0-7 5.38-10.35 12.91-11.3zm260.96 257.25H82.4a11.1 11.1 0 01-11.08-11.09V211.09a11.1 11.1 0 0111.08-11.1h403.94a11.1 11.1 0 0111.09 11.1v202.17a11.1 11.1 0 01-11.09 11.09z"/><path d="M483.21 240.4a49.82 49.82 0 01-25.79-26.06 13.53 13.53 0 00-12.46-8.18H123.78a13.53 13.53 0 00-12.46 8.18 49.82 49.82 0 01-25.78 26.05 13.54 13.54 0 00-8.05 12.4v118.76c0 5.38 3.16 10.25 8.05 12.4A49.82 49.82 0 01111.32 410a13.53 13.53 0 0012.46 8.18h321.18c5.44 0 10.33-3.21 12.46-8.18a49.82 49.82 0 0125.79-26.05 13.54 13.54 0 008.05-12.4V252.8c0-5.39-3.16-10.25-8.05-12.4zm-6.52 130.5a64.33 64.33 0 00-32.38 32.7H124.43a64.33 64.33 0 00-32.37-32.7V253.45a64.33 64.33 0 0032.37-32.7h319.88a64.33 64.33 0 0032.38 32.7V370.9z"/><path d="M284.37 230.28c-45.15 0-81.89 36.74-81.89 81.9s36.74 81.88 81.9 81.88c45.15 0 81.88-36.73 81.88-81.89 0-45.15-36.73-81.89-81.89-81.89zm0 149.2a67.4 67.4 0 01-67.31-67.3c0-37.13 30.2-67.32 67.31-67.32s67.32 30.2 67.32 67.31-30.2 67.32-67.32 67.32z"/><path d="M289.08 303.43v-27.3c9.42.66 12.91 4.97 16.14 4.97 4.04 0 5.92-5.11 5.92-7.67 0-6.59-12.91-9.42-22.06-9.68v-3.64c0-1.61-2.02-3.09-4.04-3.09-2.28 0-3.9 1.48-3.9 3.1v3.9c-12.78 1.34-25.56 8.07-25.56 25.02 0 17.21 13.46 22.06 25.56 26.36v31.61c-13.72-1.08-17.35-10.5-21.79-10.5-3.36 0-6.19 4.45-6.19 7.68 0 6.59 11.3 15.6 27.98 15.87v4.17c0 1.61 1.62 3.1 3.9 3.1 2.02 0 4.04-1.49 4.04-3.1v-4.57c14.53-2.02 24.48-11.17 24.48-27.71 0-18.3-12.78-24.22-24.48-28.52zm-7.13-2.56c-7.13-2.69-12.91-5.51-12.91-13.18 0-7 5.38-10.36 12.91-11.3v24.48zm6.32 45.87v-28.38c6.6 2.82 11.84 6.59 11.84 15.07 0 7.66-4.57 11.97-11.84 13.31z"/></svg><svg viewBox="0 0 512 512" id="monitor" xmlns="http://www.w3.org/2000/svg"><path d="M478.97 0H33.02A33.06 33.06 0 000 33.02v362.95A33.06 33.06 0 0033.02 429h145.96v26.9h-22.65c-15.1 0-27.4 12.3-27.4 27.4v16.21c0 6.9 5.6 12.5 12.5 12.5h229.12c6.9 0 12.5-5.6 12.5-12.5v-16.2c0-15.12-12.28-27.4-27.4-27.4H333V429h42.55a7.5 7.5 0 100-15H33.02A18.03 18.03 0 0115 395.97v-28.45h481.98v28.45c0 9.94-8.08 18.02-18.01 18.02h-55.95a7.5 7.5 0 100 15h55.95a33.05 33.05 0 0033.01-33.02V33.02c0-18.2-14.8-33.02-33.01-33.02zM193.98 428.99H318v26.9H193.98zm131.52 41.9h30.16c6.83 0 12.4 5.57 12.4 12.4V497H143.92v-13.7c0-6.84 5.56-12.4 12.4-12.4zm171.48-118.37H15V33.02C15 23.08 23.08 15 33.02 15h445.95c9.93 0 18.01 8.08 18.01 18.02v319.5zm0 0"/><path d="M389.27 93.79h-10a7.5 7.5 0 100 15h10a7.5 7.5 0 100-15zm80.02 0h-10a7.5 7.5 0 000 15h10a7.5 7.5 0 000-15zm-40.01 0h-10a7.5 7.5 0 100 15h10a7.5 7.5 0 000-15zm0 71.91h-10a7.5 7.5 0 100 15h10a7.5 7.5 0 100-15zm-40.01 0h-10a7.5 7.5 0 100 15h10a7.5 7.5 0 100-15zm80.02 0h-10a7.5 7.5 0 100 15h10a7.5 7.5 0 100-15zM50.5 93.79h-10a7.5 7.5 0 100 15h10a7.5 7.5 0 100-15zm40.02 0h-10a7.5 7.5 0 100 15h10a7.5 7.5 0 000-15zm40 0h-10a7.5 7.5 0 000 15h10a7.5 7.5 0 000-15zM50.5 165.7h-10a7.5 7.5 0 100 15h10a7.5 7.5 0 100-15zm40.02 0h-10a7.5 7.5 0 100 15h10a7.5 7.5 0 100-15zm40 0h-10a7.5 7.5 0 100 15h10a7.5 7.5 0 100-15zm218.03-74.03H163.43c-5.79 0-10.5 4.71-10.5 10.5v70.33c0 5.79 4.71 10.5 10.5 10.5h24.01c5.12 0 9.47-3.66 10.35-8.7 3.28-18.94 13.66-22.55 18.27-23.21h9.55v44.57a7.5 7.5 0 1015 0v-49.07c0-5.8-4.7-10.5-10.5-10.5H215.8c-.46 0-.92.02-1.35.08-20.87 2.61-28.23 21.88-30.65 31.83h-15.86v-61.32h176.12V168H328.2c-2.43-9.95-9.79-29.22-30.63-31.83-.45-.05-.91-.08-1.37-.08h-14.33c-5.79 0-10.5 4.7-10.5 10.5v132.3c-.2 3.09-.58 16.7 7.6 25.4 4.39 4.65 10.43 7.08 17.44 6.96h10.88v10.57H204.7v-10.57h10.79c7.12.1 13.15-2.31 17.53-6.96 8.17-8.68 7.81-22.24 7.6-25.4V241a7.5 7.5 0 10-15 0v38.04c0 .28.01.53.03.77.2 2.69-.06 10.48-3.55 14.19-.94.99-2.63 2.32-6.51 2.25H200.2c-5.8 0-10.5 4.71-10.5 10.5v19.57c0 5.8 4.7 10.5 10.5 10.5h111.6c5.8 0 10.5-4.7 10.5-10.5v-19.57c0-5.79-4.7-10.5-10.5-10.5h-15.7c-3.65 0-5.29-1.28-6.2-2.25-3.5-3.71-3.75-11.5-3.56-14.15.02-.28.03-.53.03-.8V151.08h9.56c4.59.65 14.98 4.25 18.27 23.21.87 5.04 5.23 8.7 10.34 8.7h24.01c5.79 0 10.5-4.7 10.5-10.5v-70.32c0-5.8-4.71-10.5-10.5-10.5zm-5.3-56.92a7.5 7.5 0 00-10.6 10.6l.8.8h-154.9l.79-.8a7.5 7.5 0 00-10.61-10.6l-13.6 13.6a7.5 7.5 0 000 10.6l13.6 13.61a7.5 7.5 0 0010.61-10.6l-.8-.8h154.9l-.8.8a7.5 7.5 0 0010.61 10.6l13.6-13.6a7.5 7.5 0 000-10.61zm0 0"/></svg><svg viewBox="0 -57 512 512" id="mountains" xmlns="http://www.w3.org/2000/svg"><path d="M499.48 43.09c6.9 0 12.52-5.63 12.52-12.53V12.52C512 5.62 506.38 0 499.48 0h-19.04c-6.71 0-12.19 5.3-12.5 11.94H278.02A12.53 12.53 0 00265.52 0h-19.04c-6.7 0-12.18 5.3-12.5 11.94H44.06A12.53 12.53 0 0031.56 0H12.52C5.62 0 0 5.62 0 12.52v18.04c0 6.9 5.62 12.53 12.52 12.53h1.5v125.15h-1.5c-6.9 0-12.52 5.62-12.52 12.53v18.03c0 6.9 5.62 12.53 12.52 12.53h1.5v142.93h-1.5C5.62 354.26 0 359.88 0 366.8v18.03c0 6.9 5.62 12.52 12.52 12.52h19.04c6.9 0 12.53-5.61 12.53-12.52v-3.6h189.87v3.6c0 6.9 5.61 12.52 12.52 12.52h19.04c6.9 0 12.52-5.61 12.52-12.52v-3.6h189.87v3.6c0 6.9 5.62 12.52 12.53 12.52h19.04c6.9 0 12.52-5.61 12.52-12.52V366.8c0-6.91-5.62-12.53-12.52-12.53h-2.51V211.33h2.5c6.91 0 12.53-5.62 12.53-12.53v-18.03c0-6.91-5.62-12.53-12.52-12.53h-2.51V43.1zm-16.54-28.06h14.03v13.02h-14.03zm-233.96 0h14.04v13.02h-14.04zm-233.95 0h14.03v13.02H15.03zm0 181.27v-13.03h14.03v13.03zm14.03 186.02H15.03v-13.03h14.03zm233.96 0h-14.04v-13.03h14.04zm233.95 0h-14.03v-13.03h14.03zm0-186.02h-14.03v-13.03h14.03zm-15.03-28.06h-1.5c-6.9 0-12.53 5.62-12.53 12.53v18.03c0 6.9 5.62 12.53 12.53 12.53h1.5v142.93h-1.5c-6.71 0-12.19 5.3-12.5 11.94H278.02a12.52 12.52 0 00-12.49-11.94h-19.04c-6.7 0-12.18 5.3-12.5 11.94H44.06a12.52 12.52 0 00-12.49-11.94h-2.5V211.33h2.5c6.9 0 12.53-5.62 12.53-12.53v-18.03c0-6.91-5.62-12.53-12.53-12.53h-2.5V43.1h2.5c6.9 0 12.53-5.63 12.53-12.53v-3.6h189.87v3.6c0 6.9 5.61 12.53 12.52 12.53h19.04c6.9 0 12.52-5.63 12.52-12.53v-3.6h189.87v3.6c0 6.9 5.62 12.53 12.53 12.53h1.5zm0 0"/><path d="M431.25 58.45H161.82a7.51 7.51 0 100 15.03h269.43a4.83 4.83 0 014.83 4.83v178.74l-24.05-27.1a7.52 7.52 0 10-11.24 9.97l35.29 39.77v39.34a4.83 4.83 0 01-4.83 4.83H80.12a4.83 4.83 0 01-4.82-4.83V282.5l.37-.34 132-131.94 89.46 100.8a7.5 7.5 0 1011.24-9.97l-13.43-15.13 49.52-49.5 26.47 29.61a7.52 7.52 0 0011.2-10.02l-28.2-31.54a12.57 12.57 0 00-9-4.2 12.6 12.6 0 00-9.23 3.65l-50.75 50.73-67.8-76.4a12.5 12.5 0 00-18.22-.54L75.3 261.28V78.3a4.83 4.83 0 014.82-4.83h35.27a7.51 7.51 0 100-15.03H80.12A19.88 19.88 0 0060.27 78.3v240.72c0 10.95 8.9 19.86 19.85 19.86h351.13a19.88 19.88 0 0019.86-19.86V78.31c0-10.95-8.9-19.86-19.86-19.86zm0 0"/><path d="M374.18 154.54a35.43 35.43 0 0035.39-35.4 35.43 35.43 0 00-35.39-35.38 35.43 35.43 0 00-35.39 35.38 35.43 35.43 0 0035.4 35.4zm0-55.75a20.38 20.38 0 0120.36 20.35 20.38 20.38 0 01-20.36 20.36 20.38 20.38 0 01-20.36-20.36 20.38 20.38 0 0120.36-20.35zm0 0"/></svg><svg viewBox="-1 0 512 512" id="pencil" xmlns="http://www.w3.org/2000/svg"><path d="M335 383.2v-45.7a7.5 7.5 0 10-15 0v45.2h-15.8V162.5H320v129a7.5 7.5 0 1015 0V156.6c-.1-5.4-3.6-8.6-7-12.9l-25-32.3a231117 231117 0 00-37.8-48.7c-2.4-3-6-4.8-9.8-4.8-3.8 0-7.3 1.8-9.7 4.8a94806 94806 0 01-51.5 66.3l-10.6 13.6c-2.5 3.3-7.7 8.4-7.7 12.5v44a7.5 7.5 0 1015 0v-36.5h15.7v220.2H191V245.5a7.5 7.5 0 10-15 0v137.7a17.2 17.2 0 00-13.4 16.7v35.6c0 9.5 7.7 17.2 17.2 17.2h8v15A44.3 44.3 0 00232 512h47a44.3 44.3 0 0044.3-44.3v-15h8c9.5 0 17.2-7.7 17.2-17.2V400c0-8.2-5.8-15-13.4-16.7zm-58.9-282h-41.3l20.6-26.7zm-77.4 46.3l24.4-31.4h64.7l24.3 31.4zm90.5 15v220.2h-11.9V162.5zm-26.9 0v220.2h-13.8V162.5zm-28.8 0v220.2h-11.8V162.5zm74.7 305.2A29.3 29.3 0 01279 497h-47a29.3 29.3 0 01-29.3-29.3v-15h105.5zm25.2-32.2c0 1.2-1 2.2-2.2 2.2H179.7c-1.2 0-2.2-1-2.2-2.2V400c0-1.2 1-2.2 2.2-2.2h151.5c1.2 0 2.2 1 2.2 2.2zm0 0"/><path d="M497.5 60c7.4 0 13.5-6 13.5-13.5v-33C511 6.1 505 0 497.5 0h-33C457 0 451 6 451 13.5v9H284a453.6 453.6 0 00-59.2 0H60v-9C60 6.1 54 0 46.5 0h-33C6.1 0 0 6 0 13.5v33C0 53.9 6 60 13.5 60h9v142.5a162 162 0 000 4.4V266h-9C6.1 266 0 272.1 0 279.6v33C0 320 6 326 13.5 326h33c7.4 0 13.5-6.1 13.5-13.5v-33c0-7.5-6-13.6-13.5-13.6h-9v-62.2c.5-30 9.7-58.5 26.8-82.5 29.4-41 75.7-69.4 130.5-79.8 10-1.9 20.2-3.2 30.5-3.9h58.1c28.7 2 53.5 7.4 76 16.3a194.8 194.8 0 0187.2 67.5 144.9 144.9 0 0126.9 85.6V266h-9c-7.5 0-13.5 6.1-13.5 13.6v33c0 7.4 6 13.5 13.5 13.5h33c7.4 0 13.5-6.1 13.5-13.5v-33c0-7.5-6-13.6-13.5-13.6h-9V60zM45 281v30H15v-30zM15 45V15h30v30zm37.1 67.6a158 158 0 00-14.6 25V60h9C53.9 60 60 54 60 46.5v-9h92.7a212.4 212.4 0 00-100.6 75zm406.7 0a209.7 209.7 0 00-100.3-75.1H451v9c0 7.4 6 13.5 13.5 13.5h9v77.7c-4.1-8.7-9-17.2-14.7-25.1zM496 281v30h-30v-30zM466 45V15h30v30zm0 0"/></svg><svg viewBox="0 0 480.56 480.56" id="phone" xmlns="http://www.w3.org/2000/svg"><path d="M365.35 317.9c-15.7-15.5-35.3-15.5-50.9 0-11.9 11.8-23.8 23.6-35.5 35.6-3.2 3.3-5.9 4-9.8 1.8-7.7-4.2-15.9-7.6-23.3-12.2-34.5-21.7-63.4-49.6-89-81-12.7-15.6-24-32.3-31.9-51.1-1.6-3.8-1.3-6.3 1.8-9.4 11.9-11.5 23.5-23.3 35.2-35.1 16.3-16.4 16.3-35.6-.1-52.1-9.3-9.4-18.6-18.6-27.9-28-9.6-9.6-19.1-19.3-28.8-28.8-15.7-15.3-35.3-15.3-50.9.1-12 11.8-23.5 23.9-35.7 35.5-11.3 10.7-17 23.8-18.2 39.1-1.9 24.9 4.2 48.4 12.8 71.3 17.6 47.4 44.4 89.5 76.9 128.1 43.9 52.2 96.3 93.5 157.6 123.3 27.6 13.4 56.2 23.7 87.3 25.4 21.4 1.2 40-4.2 54.9-20.9 10.2-11.4 21.7-21.8 32.5-32.7 16-16.2 16.1-35.8.2-51.8-19-19.1-38.1-38.1-57.2-57.1zm-19.1-79.7l36.9-6.3c-5.8-33.9-21.8-64.6-46.1-89a164.03 164.03 0 00-94-46.9l-5.2 37.1c27.7 3.9 52.9 16.4 72.8 36.3 18.8 18.8 31.1 42.6 35.6 68.8zm57.7-160.4c-42.6-42.6-96.5-69.5-156-77.8l-5.2 37.1c51.4 7.2 98 30.5 134.8 67.2 34.9 34.9 57.8 79 66.1 127.5l36.9-6.3c-9.7-56.2-36.2-107.2-76.6-147.7z"/></svg><svg viewBox="0 0 470 470" id="reward" xmlns="http://www.w3.org/2000/svg"><path d="M429.6 418.38l-62.23-150.22a7.5 7.5 0 10-13.86 5.74l56.25 135.8-51.3-14.87a7.5 7.5 0 00-8.66 3.59l-25.77 46.8-60.36-145.72c69.66-13.44 122.45-74.86 122.45-148.38C386.12 67.79 318.32 0 235 0S83.88 67.8 83.88 151.12c0 33.75 11.12 64.95 29.9 90.13L40.4 418.38a7.5 7.5 0 009.02 10.07l60.53-17.54 30.4 55.2a7.5 7.5 0 0013.5-.74l58.13-140.35a7.5 7.5 0 10-13.85-5.74L145.97 445.2l-25.77-46.79a7.5 7.5 0 00-8.65-3.59L60.24 409.7l64.4-155.47a150.72 150.72 0 00123.68 47.41l67.82 163.73a7.5 7.5 0 0013.5.75l30.4-55.2 60.53 17.53a7.5 7.5 0 009.02-10.07zM98.87 151.12C98.88 76.06 159.94 15 235 15s136.12 61.06 136.12 136.12S310.06 287.24 235 287.24 98.88 226.17 98.88 151.12z"/><path d="M321.66 122.96a7.5 7.5 0 00-5.9-5.08l-50.46-8.47-23.65-45.38a7.5 7.5 0 00-13.3 0l-23.65 45.38-50.47 8.47a7.5 7.5 0 00-4.1 12.65l35.84 36.52-7.54 50.61a7.5 7.5 0 0010.76 7.82L235 202.67l45.8 22.81a7.5 7.5 0 0010.77-7.82l-7.54-50.61 35.85-36.52a7.5 7.5 0 001.78-7.57zm-50.95 36.25a7.5 7.5 0 00-2.07 6.35l5.97 40.08-36.27-18.06a7.5 7.5 0 00-6.68 0l-36.27 18.06 5.97-40.08a7.5 7.5 0 00-2.07-6.36l-28.38-28.9 39.96-6.71a7.5 7.5 0 005.4-3.93L235 83.73l18.73 35.93a7.5 7.5 0 005.4 3.93l39.96 6.7-28.38 28.91z"/><path d="M348.61 158.68a7.5 7.5 0 00-8.42 6.45c-6.95 52.51-52.18 92.1-105.19 92.1-58.51 0-106.12-47.6-106.12-106.11S176.48 45 235 45c53.01 0 98.23 39.6 105.2 92.1a7.5 7.5 0 1014.86-1.97C347.12 75.2 295.51 30 235 30c-66.78 0-121.12 54.33-121.12 121.12S168.22 272.24 235 272.24c60.5 0 112.12-45.2 120.06-105.14a7.5 7.5 0 00-6.45-8.42z"/></svg><svg viewBox="0 -35 512 512" id="truck" xmlns="http://www.w3.org/2000/svg"><path d="M111.2 334.16a53.5 53.5 0 00-53.45 53.45c0 29.47 23.98 53.45 53.45 53.45s53.45-23.98 53.45-53.45a53.5 53.5 0 00-53.45-53.45zm0 91.7a38.29 38.29 0 01-38.24-38.25c0-21.08 17.16-38.24 38.24-38.24s38.24 17.16 38.24 38.24a38.28 38.28 0 01-38.24 38.24zm0 0"/><path d="M111.2 360.31a27.33 27.33 0 00-27.3 27.3 27.33 27.33 0 0027.3 27.3 27.34 27.34 0 0027.3-27.3 27.34 27.34 0 00-27.3-27.3zm0 39.4a12.1 12.1 0 010-24.19 12.1 12.1 0 010 24.18zm0 0"/><path d="M511.49 219.73l-34.43-89.27a54.74 54.74 0 00-50.76-34.82H292.9a7.6 7.6 0 00-7.6 7.6v174.43h-16.17V79.55c0-4.2-3.4-7.6-7.6-7.6H244.7a43.38 43.38 0 0010.54-28.38A43.62 43.62 0 00211.68 0a43.62 43.62 0 00-43.58 43.57v6.61a35.82 35.82 0 00-20.8-6.63 35.81 35.81 0 00-20.79 6.63v-6.6C126.51 19.54 106.96 0 82.94 0S39.36 19.55 39.36 43.57A43.36 43.36 0 0049.9 71.94H33.1a7.6 7.6 0 00-7.61 7.6v198.13H7.61a7.6 7.6 0 00-7.61 7.6v102.34c0 4.2 3.4 7.6 7.6 7.6h28.2c4.2 0 7.6-3.4 7.6-7.6 0-37.39 30.41-67.8 67.8-67.8a67.88 67.88 0 0167.8 67.8c0 4.2 3.41 7.6 7.6 7.6h135.1c4.2 0 7.6-3.4 7.6-7.6 0-37.39 30.42-67.8 67.8-67.8a67.28 67.28 0 0140.13 13.14 7.6 7.6 0 109.01-12.25 82.36 82.36 0 00-49.13-16.1c-43.22 0-78.82 33.18-82.67 75.4h-13.93V110.85H426.3a39.44 39.44 0 0136.57 25.1l33.92 87.94V380h-17a82.31 82.31 0 00-15.09-40.6 7.6 7.6 0 00-12.37 8.84 67.33 67.33 0 0112.58 39.36c0 4.2 3.41 7.6 7.61 7.6h31.87c4.2 0 7.61-3.4 7.61-7.6V222.46c0-.93-.17-1.86-.51-2.73zM183.3 146.47h70.62v131.2H183.3zm70.62-15.21H183.3V87.15h70.62zM183.3 43.57c0-15.64 12.73-28.36 28.37-28.36s28.36 12.72 28.36 28.36-12.72 28.37-28.36 28.37H183.3zm-36 15.18c8.78 0 16.29 5.48 19.33 13.2h-38.67a20.82 20.82 0 0119.34-13.2zM54.57 43.57c0-15.64 12.73-28.36 28.37-28.36s28.36 12.72 28.36 28.36v28.37H82.94a28.4 28.4 0 01-28.37-28.37zm56.73 43.58v44.1H40.7v-44.1zm-70.6 59.32h70.61v41.01a7.6 7.6 0 1015.22 0V87.15h41.58v190.52h-41.58v-64.03a7.6 7.6 0 10-15.22 0v64.03H40.7zm70.5 158.13c-43.2 0-78.82 33.18-82.66 75.4H15.2v-87.12h270.1V380h-91.44c-3.85-42.23-39.46-75.41-82.67-75.41zm0 0"/><path d="M477.04 226.77a7.6 7.6 0 00.83-7.04l-30.08-77.97a23.19 23.19 0 00-21.5-14.75h-102a7.6 7.6 0 00-7.6 7.6v87.86c0 4.2 3.4 7.6 7.6 7.6h146.48a7.6 7.6 0 006.27-3.3zm-145.15-11.9V142.2h94.4a7.9 7.9 0 017.31 5.02l26.1 67.63zm65.21 119.29a53.5 53.5 0 00-53.44 53.45c0 29.47 23.98 53.45 53.45 53.45s53.45-23.98 53.45-53.45a53.5 53.5 0 00-53.45-53.45zm0 91.7a38.28 38.28 0 01-38.23-38.25c0-21.08 17.15-38.24 38.24-38.24s38.24 17.16 38.24 38.24a38.29 38.29 0 01-38.24 38.24zm0 0"/><path d="M397.1 360.31a27.33 27.33 0 00-27.3 27.3c0 15.06 12.25 27.3 27.3 27.3s27.31-12.25 27.31-27.3a27.33 27.33 0 00-27.3-27.3zm0 39.4a12.1 12.1 0 010-24.18c6.68-.01 12.1 5.42 12.1 12.08s-5.42 12.1-12.1 12.1zM263.89 315.5h-53.34a7.6 7.6 0 100 15.21h53.34a7.6 7.6 0 000-15.2zm0 26.67h-53.34a7.6 7.6 0 100 15.2h53.34a7.6 7.6 0 000-15.2zm60.4-97.45a7.6 7.6 0 100 15.21h32.15a7.6 7.6 0 100-15.2zm0 0"/></svg><svg viewBox="0 0 612 612" id="twitter" xmlns="http://www.w3.org/2000/svg"><path d="M612 116.26a250.71 250.71 0 01-72.09 19.77 126.07 126.07 0 0055.19-69.41 253.1 253.1 0 01-79.78 30.48 125.19 125.19 0 00-91.63-39.66c-69.33 0-125.55 56.22-125.55 125.51 0 9.83 1.1 19.43 3.25 28.61-104.32-5.24-196.83-55.22-258.75-131.17a124.6 124.6 0 00-16.98 63.1c0 43.56 22.18 81.99 55.84 104.48a125.56 125.56 0 01-56.87-15.76v1.57c0 60.8 43.29 111.55 100.7 123.1a127.16 127.16 0 01-33.09 4.4c-8.1 0-15.94-.8-23.63-2.33 15.98 49.9 62.33 86.2 117.25 87.2A251.89 251.89 0 0129.95 499.8c-10.14 0-20.12-.62-29.95-1.72a354.88 354.88 0 00192.44 56.48c230.95 0 357.19-191.3 357.19-357.19l-.42-16.25A250.7 250.7 0 00612 116.26z"/></svg><svg viewBox="0 0 47.83 47.83" id="visa" xmlns="http://www.w3.org/2000/svg"><path d="M19.15 16.8l-2.43 14.27h3.89l2.43-14.27zm-5.69.02l-3.8 9.72-.41-1.46c-.75-1.77-2.89-4.32-5.39-5.92l3.48 11.9h4.12l6.12-14.25h-4.12z"/><path d="M7.77 17.84c-.22-.87-.88-1.13-1.7-1.16H.06l-.05.28c4.7 1.14 7.8 3.88 9.08 7.18l-1.3-6.3zm23.15 1.69c1.27-.02 2.2.26 2.91.55l.35.17.53-3.1c-.77-.29-1.98-.6-3.48-.6-3.85 0-6.55 1.94-6.57 4.71-.03 2.05 1.92 3.2 3.4 3.88 1.52.7 2.02 1.14 2.02 1.77-.02.95-1.21 1.4-2.33 1.4a8.16 8.16 0 01-3.66-.76l-.5-.22-.55 3.19c.91.4 2.6.74 4.33.76 4.1 0 6.75-1.91 6.78-4.88.01-1.62-1.02-2.85-3.27-3.87-1.36-.66-2.2-1.1-2.19-1.77 0-.6.71-1.23 2.23-1.23zm13.77-2.71h-3c-.94 0-1.63.25-2.04 1.18l-5.78 13.07h4.09l.81-2.14h4.98l.48 2.14h3.6L44.7 16.82zM39.89 26l1.55-3.99.52-1.36.26 1.23.9 4.12H39.9z"/></svg><svg viewBox="0 0 548.36 548.36" id="vk" xmlns="http://www.w3.org/2000/svg"><path d="M545.45 400.3a37.56 37.56 0 00-1.86-3.57c-9.51-17.14-27.7-38.17-54.53-63.1l-.57-.57-.28-.28-.29-.3h-.28c-12.18-11.6-19.9-19.4-23.13-23.4-5.9-7.62-7.23-15.33-4-23.14 2.28-5.9 10.85-18.36 25.7-37.4 7.8-10.08 13.98-18.17 18.55-24.26 32.93-43.78 47.2-71.76 42.83-83.94l-1.7-2.85c-1.15-1.71-4.1-3.28-8.85-4.7-4.76-1.43-10.85-1.67-18.28-.72l-82.22.57c-1.33-.47-3.23-.43-5.71.14l-3.72.86-1.43.72-1.13.86c-.95.56-2 1.56-3.14 2.99a19.6 19.6 0 00-2.85 5A466.2 466.2 0 01388 207.44a608.2 608.2 0 01-19.41 30.7c-5.9 8.66-10.85 15.03-14.85 19.12-4 4.1-7.6 7.38-10.85 9.85-3.23 2.48-5.7 3.53-7.42 3.14-1.71-.38-3.33-.76-4.86-1.14a18.99 18.99 0 01-6.42-7c-1.62-2.94-2.71-6.66-3.28-11.13-.57-4.48-.9-8.33-1-11.56-.09-3.24-.05-7.8.14-13.7.2-5.91.3-9.9.3-12 0-7.23.13-15.08.41-23.55.3-8.47.53-15.19.72-20.13.2-4.95.28-10.18.28-15.7s-.33-9.85-1-13a44.44 44.44 0 00-2.99-9.13 15.39 15.39 0 00-5.85-6.85 33 33 0 00-9.56-3.86c-10.1-2.28-22.94-3.52-38.55-3.71-35.4-.38-58.15 1.9-68.24 6.85-4 2.1-7.6 4.95-10.84 8.57-3.43 4.19-3.9 6.47-1.43 6.85 11.42 1.7 19.5 5.8 24.26 12.27l1.72 3.43c1.33 2.48 2.66 6.86 4 13.14a132.5 132.5 0 012.56 20.83c.95 13.9.95 25.8 0 35.7-.95 9.9-1.85 17.6-2.7 23.12-.87 5.52-2.15 10-3.86 13.42-1.72 3.42-2.86 5.52-3.43 6.28a4.91 4.91 0 01-1.43 1.42 21.39 21.39 0 01-7.7 1.43c-2.67 0-5.9-1.33-9.71-4-3.8-2.66-7.76-6.32-11.85-10.99-4.1-4.66-8.7-11.18-13.85-19.56a341.27 341.27 0 01-15.99-29.69l-4.56-8.28a712.22 712.22 0 01-11.7-23.27 448.65 448.65 0 01-13.14-29.55c-1.52-4-3.8-7.04-6.85-9.13l-1.43-.86a19.54 19.54 0 00-4.57-2.43 30.3 30.3 0 00-6.57-1.85l-78.22.56c-8 0-13.42 1.82-16.28 5.43L.86 139.2c-.57.96-.86 2.48-.86 4.57 0 2.1.57 4.67 1.71 7.71a942.23 942.23 0 0037.26 77.66c13.42 24.93 25.08 45.02 34.97 60.24a711.3 711.3 0 0030.27 43.1c10.28 13.52 17.08 22.18 20.41 25.99 3.33 3.81 5.95 6.66 7.85 8.56l7.14 6.86c4.57 4.56 11.28 10.04 20.13 16.41a343.34 343.34 0 0029.4 18.85c10.76 6.18 23.28 11.23 37.55 15.13 14.28 3.9 28.17 5.47 41.69 4.71h32.83c6.66-.57 11.7-2.67 15.14-6.28l1.13-1.43c.77-1.14 1.48-2.9 2.14-5.28a29 29 0 001-7.85c-.2-8.18.43-15.56 1.85-22.12 1.43-6.57 3.05-11.51 4.86-14.85a36.5 36.5 0 016.14-8.42c2.28-2.28 3.9-3.66 4.86-4.14.95-.48 1.7-.8 2.28-1 4.56-1.52 9.94-.05 16.13 4.43a94.77 94.77 0 0117.42 16.56 507.28 507.28 0 0019.55 22.13C401.33 408.9 408 415 413.7 419l5.7 3.43c3.82 2.28 8.77 4.38 14.86 6.28 6.08 1.9 11.4 2.38 15.98 1.43l73.1-1.14c7.22 0 12.85-1.2 16.84-3.58 4-2.37 6.37-5 7.13-7.85.77-2.85.8-6.09.15-9.7-.68-3.62-1.35-6.14-2-7.57z"/></svg><svg viewBox="0 0 49.89 49.89" id="webmoney" xmlns="http://www.w3.org/2000/svg"><path d="M45.9 25.93l1.17-1.06 1.06 1.17-1.17 1.06zm-2.72 1.31l1.56-1.4 1.4 1.55-1.56 1.4zm5.22-2.03l.79-.7.7.78-.78.7zm-4.58-4.11l1.17-1.06 1.06 1.18-1.17 1.05zm3.59 1.77l.78-.7.7.78-.77.7zm-42.18-.63l-.76 3.96h-.05l-1.05-3.96h-.66l-.98 3.96h-.05l-.84-3.96H0l1.21 5.31h.81l.99-3.74h.06l1.01 3.74h.81l1.22-5.31zm36.83 2.29l1.56-1.4 1.4 1.55-1.55 1.4zm-1.11-2.67l1.56-1.4 1.4 1.56-1.55 1.4zm3.95 1.6l1.17-1.05 1.05 1.17-1.16 1.05zm1.5-2.9l.78-.7.7.78-.77.7zm-12.05 3.28l-.85 2.76h-.04l-.96-2.76h-.82l1.43 3.75c-.18.56-.49.96-1 .96v.61c.86 0 1.32-.54 1.7-1.57l1.35-3.75h-.8zM9.54 25.55c0-1.23-.57-1.83-1.51-1.83-1.12 0-1.7.82-1.7 1.96 0 1.19.52 1.96 1.77 1.96.54 0 1-.15 1.33-.34v-.57a2.3 2.3 0 01-1.2.39c-.76 0-1.13-.4-1.13-1.3h2.44v-.27zm-2.42-.23c.08-.75.43-1.1.89-1.1.4 0 .78.31.82 1.1H7.12zm39.82 2.98l1.17-1.06 1.06 1.18-1.18 1.05zm-15.5-2.75c0-1.23-.58-1.83-1.51-1.83-1.13 0-1.7.82-1.7 1.96 0 1.19.51 1.96 1.77 1.96.54 0 .99-.15 1.33-.34v-.57a2.3 2.3 0 01-1.2.39c-.77 0-1.13-.4-1.13-1.3h2.44v-.27zM29 25.32c.08-.75.44-1.1.9-1.1.4 0 .78.31.82 1.1H29z"/><path d="M46.05 28.57l-1.53 1.41-2.58-2.87.72-.63-1.8-2.02.72-.63-1.83-2.02 2.85-2.58.91 1 1.54-1.37.9.94.6-.54a6.54 6.54 0 00-3.29-.88 6.58 6.58 0 00-6.56 6.57 6.58 6.58 0 0010.67 5.13l-1.32-1.5zm-34.03-4.85c-.4 0-.8.15-1.02.27v-2.13l-.78.19v5.23c.45.24 1.07.36 1.47.36 1.08 0 1.76-.68 1.76-2.08 0-1.2-.5-1.84-1.43-1.84zm-.33 3.4c-.2 0-.45-.02-.7-.12v-2.45c.3-.17.52-.25.82-.25.5 0 .85.3.85 1.26 0 1.21-.42 1.56-.97 1.56zm14.61-3.41c-.87 0-1.58.36-1.92.56v3.28h.78v-2.97c.23-.13.61-.27.91-.27.39 0 .68.1.68.7v2.54h.78v-2.71c0-.77-.34-1.12-1.24-1.13zm-7.8-1.47l-1.6 4.19h-.04l-1.68-4.19h-.91v5.31h.68v-3.76h.07l1.52 3.76h.48l1.53-3.85h.07v3.85h.81v-5.31zm3.46 1.48c-.99 0-1.7.65-1.7 1.96 0 1.28.67 1.96 1.7 1.96 1.03 0 1.71-.68 1.71-1.96 0-1.31-.72-1.96-1.7-1.96zm0 3.4c-.53 0-.92-.41-.92-1.44 0-1.01.43-1.44.92-1.44.51 0 .92.43.92 1.44 0 1.03-.39 1.44-.92 1.44z"/></svg><svg viewBox="0 0 470 470" id="window" xmlns="http://www.w3.org/2000/svg"><path d="M462.5 22.5H7.5A7.5 7.5 0 000 30v410a7.5 7.5 0 007.5 7.5h455a7.5 7.5 0 007.5-7.5v-80a7.5 7.5 0 10-15 0v72.5H15v-335h440V330a7.5 7.5 0 1015 0V30a7.5 7.5 0 00-7.5-7.5zM15 37.5h277.5v45H15v-45zm292.5 45v-45H455v45H307.5z"/><path d="M381.5 52a8 8 0 000 16 8 8 0 000-16zm-41 0a8 8 0 000 16 8 8 0 000-16zm82 0a8 8 0 000 16 8 8 0 000-16zm-271.15 95.76l60.4 60.4a7.5 7.5 0 1010.6-10.61l-65.68-65.68a7.5 7.5 0 00-10.59-.02l-44.26 43.97a7.5 7.5 0 00-.02 10.63l29 29 36.83 36.83a7.48 7.48 0 0010.6 0 7.5 7.5 0 000-10.6l-2.5-2.5L192.9 222a7.5 7.5 0 10-10.6-10.6l-17.17 17.16-18.4-18.4L163.87 193a7.5 7.5 0 10-10.6-10.6l-17.16 17.15-18.4-18.38 33.63-33.4zM255.5 340.15l57.98 57.98a7.5 7.5 0 0010.6 0L368.2 354a7.5 7.5 0 000-10.6l-65.75-65.76a7.5 7.5 0 00-10.6 10.6l60.44 60.46-33.5 33.5-18.4-18.37 17.17-17.17a7.5 7.5 0 10-10.6-10.6l-17.17 17.16-18.38-18.38 17.16-17.17a7.5 7.5 0 10-10.6-10.6l-17.17 17.16-2.47-2.47a7.5 7.5 0 00-10.6 10.6l7.77 7.78zm-147.84 59.69c1 0 2-.2 2.94-.6l65.63-28.02.13-.06.19-.1c.14-.06.28-.12.42-.2l.24-.14.37-.23.3-.22.29-.21c.19-.16.37-.32.55-.5l162.05-162.05 19.09-19.09a33.92 33.92 0 009.98-24.14 33.9 33.9 0 00-9.98-24.14 33.91 33.91 0 00-24.15-9.98c-9.12 0-17.7 3.54-24.14 9.98l-19.07 19.08-162.07 162.06-.5.55-.2.29-.22.3c-.09.12-.16.25-.24.38-.04.07-.1.15-.13.23-.08.14-.15.28-.21.43l-.09.18-.04.1-28.04 65.66a7.5 7.5 0 006.9 10.44zm190.14-224.7l27.06 27.06-151.45 151.46-27.07-27.07L297.8 175.14zm24.38-24.39a19 19 0 0113.53-5.6 19 19 0 0113.54 5.6 19 19 0 015.6 13.53 19 19 0 01-5.6 13.54l-13.78 13.78-27.07-27.07 13.78-13.78zm-183.9 188.99l21.98 21.98-38.37 16.39 16.39-38.37z"/></svg><svg viewBox="0 0 49.08 49.08" id="yandexmoney" xmlns="http://www.w3.org/2000/svg"><path d="M49.06 25.3c-.06-.38-.38-.6-.84-.61h-.41c-.28-.03-.35.06-.34.27v3.15c0 .55-.54 1.11-1.18 1.25l-6 1.32c-.23.05-.46.08-.7.08-.1 0-.23-.08-.27-.15-.03-.05.06-.17.13-.23.09-.08.2-.14.32-.18l1.11-.37 4.46-1.48c.67-.22 1.03-.67 1.04-1.23.03-1.83.02-3.65 0-5.48 0-.29-.14-.53-.49-.65-.4-.14-.74-.03-1.08.13l-6.31 3c-.62.3-.97.73-.96 1.34v5.17c0 .08.01.17.04.25.2.59.74.93 1.48.93h8.87c.32 0 .61-.07.85-.27.31-.25.3-.57.3-.88a1693.91 1693.91 0 00-.02-5.37zm-6.15-.55c.15-.38.48-.62.97-.69.33-.04.61.17.66.46.07.46-.5.99-1.06.99-.47 0-.73-.33-.57-.76zm-35.3-6.66v1.58H6.43v-1.59h-.62V22h.64v-1.75h1.17V22h.62v-3.9h-.63zm15.72 10.75c-.18-.92-.89-1.49-2.02-1.58-.44-.04-.9 0-1.37 0v-2.48h-.97v6.88c.72 0 1.4.04 2.09-.02 1.02-.07 1.8-.48 2.16-1.3.2-.49.21-1 .11-1.5zm-1.49 1.05c-.18.76-.96 1.11-1.9.9l.01-2.51c0-.06.1-.15.17-.16.94-.2 1.56.11 1.73.9.06.28.06.58 0 .87zM4.3 15.98H3.28c-.48 0-.87.15-1.2.44-1.12 1-.83 2.88.67 3.28L1.22 22h.54c.21.02.32-.05.42-.2.37-.61.77-1.21 1.16-1.81.18-.28.2-.29.62-.2v2.19h.72v-5.7c0-.3 0-.3-.38-.3zm-.36 3.17c-.49 0-1 .12-1.37-.25-.42-.41-.54-.9-.39-1.42l.06-.13c.31-.72.73-.93 1.7-.8v2.6zM22 21.43c-1.06.35-1.79.03-1.98-.9-.1-.47-.07-.95.1-1.42.24-.64.71-.83 1.5-.62h.05l.25-.31a1.58 1.58 0 00-2 .21 2.3 2.3 0 00-.57 1.4c-.06.57.02 1.12.4 1.63.4.53 1.08.77 1.8.6.5-.1.55-.16.45-.6zM5.2 30.84v-6.06H1.58c-.05 1.03-.07 2.04-.15 3.05-.07.9-.27 1.78-.67 2.62-.13.28-.29.47-.69.4l-.07.02v2.23h1.08v-1.47H5v1.47h1.05v-2.26H5.2zm-1.17 0H1.66c.2-.51.45-1 .6-1.53.3-1.03.3-2.1.3-3.16v-.51h1.47v5.2zm11.35-9.36c-.18.05-.36.12-.54.16-.51.1-.88-.01-1.08-.34-.22-.37-.21-.78-.2-1.2h1.94a2.53 2.53 0 00-.44-1.78c-.36-.48-.97-.55-1.46-.16-.18.14-.33.33-.44.52-.3.53-.42 1.1-.35 1.68.05.36.14.72.3 1.06.22.5.73.75 1.33.69.28-.03.57-.11.84-.2.3-.11.3-.2.1-.43zm-1.5-2.86c.22-.28.58-.27.77.02.22.31.24.66.24 1.02h-1.35c.02-.38.1-.73.34-1.04zm3.28 6.28c-.04-.04-.1-.12-.15-.12h-.99v2.82h-2.07v-2.82h-1.1v6.9h1.11V29c0-.45 0-.45.53-.45h1.54v3.13h1.12l.01-.2v-6.49c0-.03.02-.06 0-.08zm.62-5.29l1.13-1.34.15-.2h-.26c-.28-.04-.44.05-.6.25-.32.43-.69.84-1.04 1.26l-.18.18v-1.68h-.62v3.82h.62l.01-1.34c0-.15.08-.3.12-.46.12.08.17.14.21.2l.96 1.44c.04.07.11.15.18.16.18.02.37 0 .6 0l-1.3-1.96c-.08-.12-.09-.2.02-.33zm14.69 5.15c-.18 0-.26.04-.33.18l-1.32 2.85-.59 1.25h-.05v-4.27h-1.12v6.92h1.1l2.1-4.55v4.54h1.26v-6.92h-1.05zM11.31 30.7c-.34.1-.65.22-.97.29-1.06.21-1.75-.08-2.06-.85-.23-.59-.22-1.2-.23-1.84h3.46c-.05-.53-.06-1.06-.15-1.56a3.28 3.28 0 00-.88-1.75c-.44-.45-.98-.58-1.65-.4-.7.19-1.12.63-1.41 1.15a5.21 5.21 0 00-.27 4.67c.2.48.52.9 1.07 1.16.9.45 2.38.3 3.3-.35a98.5 98.5 0 00-.2-.53zm-2.74-4.9c.16-.23.38-.42.75-.4.35.02.56.2.7.45.32.54.38 1.12.37 1.72H8.02c.06-.63.17-1.23.55-1.77zm3.26-4.33v-3.39H9.8v.71c-.03.8-.06 1.6-.4 2.36-.08.19-.14.39-.45.35v1.23h.58v-.8h2.22v.8h.55v-1.24l-.46-.02zm-.64 0H9.8c.6-.92.52-1.92.56-2.9h.82v2.9zm13.18 3.3v6.91h1.02v-6.21h3.11v-.7h-4.13z"/></svg></svg>